<mxfile host="app.diagrams.net" modified="2023-11-04T14:58:07.663Z" agent="Mozilla/5.0 (Windows NT 10.0; Win64; x64) AppleWebKit/537.36 (KHTML, like Gecko) Chrome/119.0.0.0 Safari/537.36" etag="zNrDZMcbgB1rtArH6VmP" version="22.0.8" type="github">
  <diagram name="페이지-1" id="ybpHdLO_MxR6rBKI8lsR">
    <mxGraphModel dx="1434" dy="758" grid="1" gridSize="10" guides="1" tooltips="1" connect="1" arrows="1" fold="1" page="1" pageScale="1" pageWidth="1169" pageHeight="827" math="0" shadow="0">
      <root>
        <mxCell id="0" />
        <mxCell id="1" parent="0" />
        <mxCell id="dz0AKzEHm1xZtvOBA58W-40" value="" style="rounded=0;whiteSpace=wrap;html=1;" vertex="1" parent="1">
          <mxGeometry x="160" y="160" width="890" height="480" as="geometry" />
        </mxCell>
        <mxCell id="dz0AKzEHm1xZtvOBA58W-39" value="" style="rounded=1;whiteSpace=wrap;html=1;arcSize=5;" vertex="1" parent="1">
          <mxGeometry x="260" y="270" width="770" height="350" as="geometry" />
        </mxCell>
        <mxCell id="dz0AKzEHm1xZtvOBA58W-1" value="User" style="shape=umlActor;verticalLabelPosition=bottom;verticalAlign=top;html=1;outlineConnect=0;" vertex="1" parent="1">
          <mxGeometry x="194" y="327" width="30" height="60" as="geometry" />
        </mxCell>
        <mxCell id="dz0AKzEHm1xZtvOBA58W-2" value="Admin" style="shape=umlActor;verticalLabelPosition=bottom;verticalAlign=top;html=1;outlineConnect=0;" vertex="1" parent="1">
          <mxGeometry x="194" y="450" width="30" height="60" as="geometry" />
        </mxCell>
        <mxCell id="dz0AKzEHm1xZtvOBA58W-3" value="회원 가입" style="rounded=1;whiteSpace=wrap;html=1;" vertex="1" parent="1">
          <mxGeometry x="325" y="288" width="120" height="40" as="geometry" />
        </mxCell>
        <mxCell id="dz0AKzEHm1xZtvOBA58W-26" style="edgeStyle=orthogonalEdgeStyle;rounded=0;orthogonalLoop=1;jettySize=auto;html=1;exitX=1;exitY=0.5;exitDx=0;exitDy=0;entryX=0;entryY=0.5;entryDx=0;entryDy=0;" edge="1" parent="1" source="dz0AKzEHm1xZtvOBA58W-4" target="dz0AKzEHm1xZtvOBA58W-7">
          <mxGeometry relative="1" as="geometry" />
        </mxCell>
        <mxCell id="dz0AKzEHm1xZtvOBA58W-27" style="edgeStyle=orthogonalEdgeStyle;rounded=0;orthogonalLoop=1;jettySize=auto;html=1;exitX=1;exitY=0.5;exitDx=0;exitDy=0;entryX=0;entryY=0.5;entryDx=0;entryDy=0;" edge="1" parent="1" source="dz0AKzEHm1xZtvOBA58W-4" target="dz0AKzEHm1xZtvOBA58W-10">
          <mxGeometry relative="1" as="geometry" />
        </mxCell>
        <mxCell id="dz0AKzEHm1xZtvOBA58W-4" value="로그인" style="rounded=1;whiteSpace=wrap;html=1;" vertex="1" parent="1">
          <mxGeometry x="325" y="408" width="120" height="40" as="geometry" />
        </mxCell>
        <mxCell id="dz0AKzEHm1xZtvOBA58W-5" value="강사 등록" style="rounded=1;whiteSpace=wrap;html=1;" vertex="1" parent="1">
          <mxGeometry x="325" y="482" width="120" height="40" as="geometry" />
        </mxCell>
        <mxCell id="dz0AKzEHm1xZtvOBA58W-6" value="강의 등록" style="rounded=1;whiteSpace=wrap;html=1;" vertex="1" parent="1">
          <mxGeometry x="325" y="555" width="120" height="40" as="geometry" />
        </mxCell>
        <mxCell id="dz0AKzEHm1xZtvOBA58W-29" style="edgeStyle=orthogonalEdgeStyle;rounded=0;orthogonalLoop=1;jettySize=auto;html=1;exitX=1;exitY=0.5;exitDx=0;exitDy=0;entryX=0;entryY=0.5;entryDx=0;entryDy=0;" edge="1" parent="1" source="dz0AKzEHm1xZtvOBA58W-7" target="dz0AKzEHm1xZtvOBA58W-8">
          <mxGeometry relative="1" as="geometry" />
        </mxCell>
        <mxCell id="dz0AKzEHm1xZtvOBA58W-30" style="edgeStyle=orthogonalEdgeStyle;rounded=0;orthogonalLoop=1;jettySize=auto;html=1;exitX=1;exitY=0.5;exitDx=0;exitDy=0;entryX=0;entryY=0.25;entryDx=0;entryDy=0;" edge="1" parent="1" source="dz0AKzEHm1xZtvOBA58W-7" target="dz0AKzEHm1xZtvOBA58W-13">
          <mxGeometry relative="1" as="geometry" />
        </mxCell>
        <mxCell id="dz0AKzEHm1xZtvOBA58W-7" value="선택한 강의 조회&lt;br&gt;&amp;lt;강사정보포함&amp;gt;&lt;br&gt;전화번호 제외&lt;br&gt;&amp;lt;댓글 포함&amp;gt;" style="rounded=1;whiteSpace=wrap;html=1;" vertex="1" parent="1">
          <mxGeometry x="516" y="310" width="120" height="90" as="geometry" />
        </mxCell>
        <mxCell id="dz0AKzEHm1xZtvOBA58W-31" style="edgeStyle=orthogonalEdgeStyle;rounded=0;orthogonalLoop=1;jettySize=auto;html=1;exitX=1;exitY=0.5;exitDx=0;exitDy=0;entryX=0;entryY=0.5;entryDx=0;entryDy=0;" edge="1" parent="1" source="dz0AKzEHm1xZtvOBA58W-8" target="dz0AKzEHm1xZtvOBA58W-11">
          <mxGeometry relative="1" as="geometry" />
        </mxCell>
        <mxCell id="dz0AKzEHm1xZtvOBA58W-32" style="edgeStyle=orthogonalEdgeStyle;rounded=0;orthogonalLoop=1;jettySize=auto;html=1;exitX=1;exitY=0.5;exitDx=0;exitDy=0;entryX=0;entryY=0.5;entryDx=0;entryDy=0;" edge="1" parent="1" source="dz0AKzEHm1xZtvOBA58W-8" target="dz0AKzEHm1xZtvOBA58W-12">
          <mxGeometry relative="1" as="geometry" />
        </mxCell>
        <mxCell id="dz0AKzEHm1xZtvOBA58W-33" style="edgeStyle=orthogonalEdgeStyle;rounded=0;orthogonalLoop=1;jettySize=auto;html=1;exitX=1;exitY=0.5;exitDx=0;exitDy=0;entryX=0;entryY=0.5;entryDx=0;entryDy=0;" edge="1" parent="1" source="dz0AKzEHm1xZtvOBA58W-8" target="dz0AKzEHm1xZtvOBA58W-9">
          <mxGeometry relative="1" as="geometry" />
        </mxCell>
        <mxCell id="dz0AKzEHm1xZtvOBA58W-8" value="댓글 작성" style="rounded=1;whiteSpace=wrap;html=1;" vertex="1" parent="1">
          <mxGeometry x="700" y="335" width="120" height="40" as="geometry" />
        </mxCell>
        <mxCell id="dz0AKzEHm1xZtvOBA58W-9" value="대댓글 작성" style="rounded=1;whiteSpace=wrap;html=1;" vertex="1" parent="1">
          <mxGeometry x="890" y="442" width="120" height="40" as="geometry" />
        </mxCell>
        <mxCell id="dz0AKzEHm1xZtvOBA58W-10" value="카테고리별&lt;br&gt;강의 조회&lt;br&gt;&lt;br&gt;&amp;lt;조회 기준&amp;gt;&lt;br&gt;강의명, 가격, 등록일&lt;br&gt;오름/내림" style="rounded=1;whiteSpace=wrap;html=1;" vertex="1" parent="1">
          <mxGeometry x="516" y="480" width="120" height="100" as="geometry" />
        </mxCell>
        <mxCell id="dz0AKzEHm1xZtvOBA58W-11" value="댓글 수정" style="rounded=1;whiteSpace=wrap;html=1;" vertex="1" parent="1">
          <mxGeometry x="890" y="290" width="120" height="40" as="geometry" />
        </mxCell>
        <mxCell id="dz0AKzEHm1xZtvOBA58W-12" value="댓글 삭제" style="rounded=1;whiteSpace=wrap;html=1;" vertex="1" parent="1">
          <mxGeometry x="890" y="366" width="120" height="40" as="geometry" />
        </mxCell>
        <mxCell id="dz0AKzEHm1xZtvOBA58W-13" value="좋아요/취소" style="rounded=1;whiteSpace=wrap;html=1;" vertex="1" parent="1">
          <mxGeometry x="700" y="444" width="120" height="40" as="geometry" />
        </mxCell>
        <mxCell id="dz0AKzEHm1xZtvOBA58W-14" value="" style="endArrow=classic;html=1;rounded=0;entryX=0;entryY=0.5;entryDx=0;entryDy=0;" edge="1" parent="1" source="dz0AKzEHm1xZtvOBA58W-1" target="dz0AKzEHm1xZtvOBA58W-3">
          <mxGeometry width="50" height="50" relative="1" as="geometry">
            <mxPoint x="560" y="460" as="sourcePoint" />
            <mxPoint x="610" y="410" as="targetPoint" />
          </mxGeometry>
        </mxCell>
        <mxCell id="dz0AKzEHm1xZtvOBA58W-15" value="" style="endArrow=classic;html=1;rounded=0;entryX=0;entryY=0;entryDx=0;entryDy=0;" edge="1" parent="1" source="dz0AKzEHm1xZtvOBA58W-1" target="dz0AKzEHm1xZtvOBA58W-4">
          <mxGeometry width="50" height="50" relative="1" as="geometry">
            <mxPoint x="240" y="363" as="sourcePoint" />
            <mxPoint x="335" y="335" as="targetPoint" />
          </mxGeometry>
        </mxCell>
        <mxCell id="dz0AKzEHm1xZtvOBA58W-16" value="" style="endArrow=classic;html=1;rounded=0;" edge="1" parent="1" source="dz0AKzEHm1xZtvOBA58W-2" target="dz0AKzEHm1xZtvOBA58W-4">
          <mxGeometry width="50" height="50" relative="1" as="geometry">
            <mxPoint x="240" y="373" as="sourcePoint" />
            <mxPoint x="347" y="418" as="targetPoint" />
          </mxGeometry>
        </mxCell>
        <mxCell id="dz0AKzEHm1xZtvOBA58W-17" value="" style="endArrow=classic;html=1;rounded=0;entryX=0;entryY=1;entryDx=0;entryDy=0;" edge="1" parent="1" source="dz0AKzEHm1xZtvOBA58W-2" target="dz0AKzEHm1xZtvOBA58W-3">
          <mxGeometry width="50" height="50" relative="1" as="geometry">
            <mxPoint x="240" y="485" as="sourcePoint" />
            <mxPoint x="335" y="456" as="targetPoint" />
          </mxGeometry>
        </mxCell>
        <mxCell id="dz0AKzEHm1xZtvOBA58W-20" value="" style="endArrow=classic;html=1;rounded=0;" edge="1" parent="1" source="dz0AKzEHm1xZtvOBA58W-2" target="dz0AKzEHm1xZtvOBA58W-5">
          <mxGeometry relative="1" as="geometry">
            <mxPoint x="540" y="440" as="sourcePoint" />
            <mxPoint x="640" y="440" as="targetPoint" />
          </mxGeometry>
        </mxCell>
        <mxCell id="dz0AKzEHm1xZtvOBA58W-21" value="" style="shape=message;html=1;outlineConnect=0;" vertex="1" parent="dz0AKzEHm1xZtvOBA58W-20">
          <mxGeometry width="20" height="14" relative="1" as="geometry">
            <mxPoint x="-10" y="-7" as="offset" />
          </mxGeometry>
        </mxCell>
        <mxCell id="dz0AKzEHm1xZtvOBA58W-22" value="" style="endArrow=classic;html=1;rounded=0;entryX=0;entryY=0;entryDx=0;entryDy=0;" edge="1" parent="1" source="dz0AKzEHm1xZtvOBA58W-2" target="dz0AKzEHm1xZtvOBA58W-6">
          <mxGeometry relative="1" as="geometry">
            <mxPoint x="240" y="492" as="sourcePoint" />
            <mxPoint x="335" y="504" as="targetPoint" />
          </mxGeometry>
        </mxCell>
        <mxCell id="dz0AKzEHm1xZtvOBA58W-23" value="" style="shape=message;html=1;outlineConnect=0;" vertex="1" parent="dz0AKzEHm1xZtvOBA58W-22">
          <mxGeometry width="20" height="14" relative="1" as="geometry">
            <mxPoint x="-10" y="-7" as="offset" />
          </mxGeometry>
        </mxCell>
        <mxCell id="dz0AKzEHm1xZtvOBA58W-34" value="비회원" style="shape=umlActor;verticalLabelPosition=bottom;verticalAlign=top;html=1;outlineConnect=0;" vertex="1" parent="1">
          <mxGeometry x="420" y="180" width="30" height="60" as="geometry" />
        </mxCell>
        <mxCell id="dz0AKzEHm1xZtvOBA58W-35" value="" style="endArrow=classic;html=1;rounded=0;" edge="1" parent="1" source="dz0AKzEHm1xZtvOBA58W-34" target="dz0AKzEHm1xZtvOBA58W-7">
          <mxGeometry width="50" height="50" relative="1" as="geometry">
            <mxPoint x="560" y="460" as="sourcePoint" />
            <mxPoint x="610" y="410" as="targetPoint" />
          </mxGeometry>
        </mxCell>
        <mxCell id="dz0AKzEHm1xZtvOBA58W-36" value="" style="endArrow=classic;html=1;rounded=0;" edge="1" parent="1" source="dz0AKzEHm1xZtvOBA58W-34" target="dz0AKzEHm1xZtvOBA58W-10">
          <mxGeometry width="50" height="50" relative="1" as="geometry">
            <mxPoint x="560" y="460" as="sourcePoint" />
            <mxPoint x="610" y="410" as="targetPoint" />
          </mxGeometry>
        </mxCell>
        <mxCell id="dz0AKzEHm1xZtvOBA58W-37" value="" style="shape=message;html=1;html=1;outlineConnect=0;labelPosition=center;verticalLabelPosition=bottom;align=center;verticalAlign=top;" vertex="1" parent="1">
          <mxGeometry x="642" y="347" width="20" height="14" as="geometry" />
        </mxCell>
        <mxCell id="dz0AKzEHm1xZtvOBA58W-38" value="" style="shape=message;html=1;html=1;outlineConnect=0;labelPosition=center;verticalLabelPosition=bottom;align=center;verticalAlign=top;" vertex="1" parent="1">
          <mxGeometry x="828" y="347" width="20" height="14" as="geometry" />
        </mxCell>
      </root>
    </mxGraphModel>
  </diagram>
</mxfile>
